<?xml version="1.0" encoding="UTF-8"?>
<!-- original SVG found at https://www.svgrepo.com/svg/73842/license -->
<svg version="1.1" id="Layer_1" xmlns="http://www.w3.org/2000/svg" xmlns:xlink="http://www.w3.org/1999/xlink" x="0px" y="0px" viewBox="0 0 490 490" style="enable-background:new 0 0 490 490;" xml:space="preserve">
	<g>
		<g>
			<g>
				<path d="M439.976,110c-0.001-2.602-0.992-5.159-2.904-7.071l-100-100c-1.912-1.912-4.47-2.903-7.071-2.904V0H60
				c-5.523,0-10,4.477-10,10v470c0,5.523,4.477,10,10,10h370c5.522,0,10-4.477,10-10V110H439.976z M340,34.142L405.857,100H340
				V34.142z M420,470H70V20h250v90c0,5.523,4.478,10,10,10h90V470z" fill="#FFFFFF" />
				<path d="M379.447,339.49c-7.657-12.376-20.975-19.475-36.535-19.475c-7.511,0-15.198,1.64-22.912,4.882
				c-7.714-3.242-15.401-4.882-22.912-4.882c-15.56,0-28.875,7.099-36.533,19.476c-8.036,12.989-8.541,29.684-1.551,46.403
				c-6.992,16.688-6.49,33.368,1.542,46.364c7.666,12.403,20.998,19.516,36.577,19.515c7.501,0,15.178-1.637,22.877-4.872
				c7.7,3.235,15.375,4.872,22.874,4.872c0.001,0,0.003,0,0.004,0c15.579-0.001,28.911-7.116,36.576-19.52
				c8.031-12.996,8.533-29.673,1.542-46.358C387.988,369.172,387.483,352.478,379.447,339.49z M362.441,421.739
				c-3.998,6.469-10.946,10.033-19.564,10.034c-5.817,0-12.01-1.621-18.404-4.818c-1.407-0.704-2.94-1.056-4.472-1.056
				s-3.065,0.352-4.472,1.056c-6.393,3.196-12.586,4.817-18.406,4.818c-8.618,0-15.566-3.562-19.564-10.03
				c-5.023-8.128-4.519-19.563,1.386-31.372c1.406-2.812,1.407-6.122,0.005-8.935c-5.908-11.846-6.413-23.298-1.387-31.422
				c3.989-6.448,10.924-9.999,19.525-9.999c5.829,0,12.033,1.625,18.44,4.828c2.815,1.407,6.129,1.407,8.943,0
				c6.407-3.204,12.611-4.828,18.44-4.828c8.603,0,15.538,3.551,19.527,9.998c5.026,8.123,4.52,19.576-1.389,31.423
				c-1.401,2.813-1.4,6.123,0.007,8.935C366.959,402.177,367.464,413.61,362.441,421.739z" fill="#FFFFFF" />
				<rect x="310" y="360.898" width="20" height="20" style="fill:#FFFFFF" />
				<rect x="300" y="390.898" width="40" height="20" style="fill:#FFFFFF" />
				<rect x="95" y="395" width="120" height="20" style="fill:#FFFFFF" />
				<rect x="195" y="430" width="20" height="20" style="fill:#FFFFFF" />
				<rect x="165" y="430" width="20" height="20" style="fill:#FFFFFF" />
				<rect x="95" y="430" width="20" height="20" style="fill:#FFFFFF" />
				<rect x="95" y="40" width="60" height="20" style="fill:#FFFFFF" />
				<rect x="95" y="70" width="120" height="20" style="fill:#FFFFFF" />
				<rect x="165" y="150" width="160" height="20" style="fill:#FFFFFF" />
				<rect x="95" y="190" width="300" height="20" style="fill:#FFFFFF" />
				<rect x="95" y="230" width="300" height="20" style="fill:#FFFFFF" />
				<rect x="95" y="270" width="240" height="20" style="fill:#FFFFFF" />
				<rect x="375" y="270" width="20" height="20" style="fill:#FFFFFF" />
				<rect x="345" y="270" width="20" height="20" style="fill:#FFFFFF" />
			</g>
		</g>
	</g>
</svg>
